<mxfile host="app.diagrams.net" agent="Mozilla/5.0 (Windows NT 10.0; Win64; x64) AppleWebKit/537.36 (KHTML, like Gecko) Chrome/118.0.0.0 Safari/537.36" version="28.0.6">
  <diagram name="第 1 页" id="CfYoRQMPmK59GB7jdFsn">
    <mxGraphModel dx="854" dy="373" grid="1" gridSize="10" guides="1" tooltips="1" connect="1" arrows="1" fold="1" page="1" pageScale="1" pageWidth="827" pageHeight="1169" math="0" shadow="0">
      <root>
        <mxCell id="0" />
        <mxCell id="1" parent="0" />
        <mxCell id="GxxsYYWA1YiQxPub7qs1-18" value="&lt;b&gt;Redis Cluster 哈希槽分配&lt;/b&gt;" style="text;strokeColor=none;align=center;fillColor=none;html=1;verticalAlign=middle;whiteSpace=wrap;rounded=0;" parent="1" vertex="1">
          <mxGeometry x="145" y="100" width="150" height="20" as="geometry" />
        </mxCell>
        <mxCell id="GxxsYYWA1YiQxPub7qs1-22" value="&lt;div style=&quot;text-align: left;&quot;&gt;&lt;span style=&quot;background-color: transparent;&quot;&gt;KEY &quot;user:1000&quot;&lt;/span&gt;&lt;/div&gt;&lt;div style=&quot;text-align: left;&quot;&gt;&lt;span style=&quot;background-color: transparent;&quot;&gt;CRC16(&quot;user:1000&quot;)=1234&lt;/span&gt;&lt;/div&gt;&lt;div style=&quot;text-align: left;&quot;&gt;&lt;span style=&quot;background-color: transparent;&quot;&gt;1234 % 16384 = 1234&lt;/span&gt;&lt;/div&gt;&lt;div style=&quot;text-align: left;&quot;&gt;&lt;span style=&quot;background-color: transparent;&quot;&gt;→ 路由到 Node A&lt;/span&gt;&lt;/div&gt;" style="text;strokeColor=none;align=center;fillColor=none;html=1;verticalAlign=middle;whiteSpace=wrap;rounded=0;" parent="1" vertex="1">
          <mxGeometry x="145" y="140" width="160" height="55" as="geometry" />
        </mxCell>
        <mxCell id="GxxsYYWA1YiQxPub7qs1-23" value="&lt;div style=&quot;text-align: left;&quot;&gt;&lt;span style=&quot;background-color: transparent;&quot;&gt;KEY &quot;order:2000&quot;&lt;/span&gt;&lt;/div&gt;&lt;div&gt;&lt;div style=&quot;text-align: left;&quot;&gt;&lt;span style=&quot;background-color: transparent;&quot;&gt;CRC16(&quot;order:2000&quot;)=6789&lt;/span&gt;&lt;/div&gt;&lt;div style=&quot;text-align: left;&quot;&gt;&lt;span style=&quot;background-color: transparent;&quot;&gt;6789 % 16384 = 6789&lt;/span&gt;&lt;/div&gt;&lt;div style=&quot;text-align: left;&quot;&gt;&lt;span style=&quot;background-color: transparent;&quot;&gt;→ 路由到 Node B&lt;/span&gt;&lt;/div&gt;&lt;/div&gt;" style="text;strokeColor=none;align=center;fillColor=none;html=1;verticalAlign=middle;whiteSpace=wrap;rounded=0;" parent="1" vertex="1">
          <mxGeometry x="349" y="135" width="160" height="60" as="geometry" />
        </mxCell>
        <mxCell id="GxxsYYWA1YiQxPub7qs1-24" value="&lt;div style=&quot;text-align: left;&quot;&gt;&lt;span style=&quot;background-color: transparent;&quot;&gt;KEY &quot;product:3000&quot;&lt;/span&gt;&lt;/div&gt;&lt;div&gt;&lt;div style=&quot;text-align: left;&quot;&gt;&lt;span style=&quot;background-color: transparent;&quot;&gt;CRC16(&quot;product:3000&quot;)=15000&lt;/span&gt;&lt;/div&gt;&lt;div style=&quot;text-align: left;&quot;&gt;&lt;span style=&quot;background-color: transparent;&quot;&gt;15000 % 16384 = 15000&lt;/span&gt;&lt;/div&gt;&lt;div style=&quot;text-align: left;&quot;&gt;&lt;span style=&quot;background-color: transparent;&quot;&gt;→ 路由到 Node C&lt;/span&gt;&lt;/div&gt;&lt;/div&gt;" style="text;strokeColor=none;align=center;fillColor=none;html=1;verticalAlign=middle;whiteSpace=wrap;rounded=0;" parent="1" vertex="1">
          <mxGeometry x="560" y="135" width="180" height="60" as="geometry" />
        </mxCell>
        <mxCell id="EdYVw8JxPQ8l5NFYAC7c-12" value="" style="group" vertex="1" connectable="0" parent="1">
          <mxGeometry x="140" y="200" width="130" height="180" as="geometry" />
        </mxCell>
        <mxCell id="EdYVw8JxPQ8l5NFYAC7c-7" style="edgeStyle=orthogonalEdgeStyle;rounded=0;orthogonalLoop=1;jettySize=auto;html=1;exitX=0.5;exitY=1;exitDx=0;exitDy=0;entryX=0.5;entryY=0;entryDx=0;entryDy=0;" edge="1" parent="EdYVw8JxPQ8l5NFYAC7c-12" source="GxxsYYWA1YiQxPub7qs1-13" target="EdYVw8JxPQ8l5NFYAC7c-1">
          <mxGeometry relative="1" as="geometry" />
        </mxCell>
        <mxCell id="GxxsYYWA1YiQxPub7qs1-13" value="" style="rounded=1;whiteSpace=wrap;html=1;fillColor=#66FFFF;shadow=1;" parent="EdYVw8JxPQ8l5NFYAC7c-12" vertex="1">
          <mxGeometry width="130" height="60" as="geometry" />
        </mxCell>
        <mxCell id="GxxsYYWA1YiQxPub7qs1-25" value="Master NodeA&lt;div&gt;(Slots 0-5460)&lt;br&gt;&lt;/div&gt;" style="text;strokeColor=none;align=center;fillColor=none;html=1;verticalAlign=middle;whiteSpace=wrap;rounded=0;" parent="EdYVw8JxPQ8l5NFYAC7c-12" vertex="1">
          <mxGeometry x="22.5" y="15" width="85" height="30" as="geometry" />
        </mxCell>
        <mxCell id="EdYVw8JxPQ8l5NFYAC7c-1" value="Slave Node" style="rounded=1;whiteSpace=wrap;html=1;fillColor=#CCFFFF;shadow=1;" vertex="1" parent="EdYVw8JxPQ8l5NFYAC7c-12">
          <mxGeometry y="120" width="130" height="60" as="geometry" />
        </mxCell>
        <mxCell id="EdYVw8JxPQ8l5NFYAC7c-13" value="" style="group" vertex="1" connectable="0" parent="1">
          <mxGeometry x="349" y="200" width="130" height="180" as="geometry" />
        </mxCell>
        <mxCell id="EdYVw8JxPQ8l5NFYAC7c-8" style="edgeStyle=orthogonalEdgeStyle;rounded=0;orthogonalLoop=1;jettySize=auto;html=1;exitX=0.5;exitY=1;exitDx=0;exitDy=0;entryX=0.5;entryY=0;entryDx=0;entryDy=0;" edge="1" parent="EdYVw8JxPQ8l5NFYAC7c-13" source="GxxsYYWA1YiQxPub7qs1-11" target="EdYVw8JxPQ8l5NFYAC7c-2">
          <mxGeometry relative="1" as="geometry" />
        </mxCell>
        <mxCell id="GxxsYYWA1YiQxPub7qs1-11" value="" style="rounded=1;whiteSpace=wrap;html=1;fillColor=#66FFFF;shadow=1;" parent="EdYVw8JxPQ8l5NFYAC7c-13" vertex="1">
          <mxGeometry width="130" height="60" as="geometry" />
        </mxCell>
        <mxCell id="GxxsYYWA1YiQxPub7qs1-12" value="Master NodeB&lt;div&gt;(Slots 5461-10922)&lt;br&gt;&lt;/div&gt;" style="text;strokeColor=none;align=center;fillColor=none;html=1;verticalAlign=middle;whiteSpace=wrap;rounded=0;" parent="EdYVw8JxPQ8l5NFYAC7c-13" vertex="1">
          <mxGeometry x="10" y="10" width="110" height="40" as="geometry" />
        </mxCell>
        <mxCell id="EdYVw8JxPQ8l5NFYAC7c-2" value="Slave Node" style="rounded=1;whiteSpace=wrap;html=1;fillColor=#CCFFFF;shadow=1;" vertex="1" parent="EdYVw8JxPQ8l5NFYAC7c-13">
          <mxGeometry y="120" width="130" height="60" as="geometry" />
        </mxCell>
        <mxCell id="EdYVw8JxPQ8l5NFYAC7c-14" value="" style="group" vertex="1" connectable="0" parent="1">
          <mxGeometry x="560" y="200" width="130" height="180" as="geometry" />
        </mxCell>
        <mxCell id="EdYVw8JxPQ8l5NFYAC7c-9" style="edgeStyle=orthogonalEdgeStyle;rounded=0;orthogonalLoop=1;jettySize=auto;html=1;exitX=0.5;exitY=1;exitDx=0;exitDy=0;entryX=0.5;entryY=0;entryDx=0;entryDy=0;" edge="1" parent="EdYVw8JxPQ8l5NFYAC7c-14" source="GxxsYYWA1YiQxPub7qs1-8" target="EdYVw8JxPQ8l5NFYAC7c-3">
          <mxGeometry relative="1" as="geometry" />
        </mxCell>
        <mxCell id="GxxsYYWA1YiQxPub7qs1-8" value="" style="rounded=1;whiteSpace=wrap;html=1;fillColor=#66FFFF;shadow=1;" parent="EdYVw8JxPQ8l5NFYAC7c-14" vertex="1">
          <mxGeometry width="130" height="60" as="geometry" />
        </mxCell>
        <mxCell id="GxxsYYWA1YiQxPub7qs1-9" value="Master NodeC&lt;div&gt;(Slots 10923-16383)&lt;br&gt;&lt;/div&gt;" style="text;strokeColor=none;align=center;fillColor=none;html=1;verticalAlign=middle;whiteSpace=wrap;rounded=0;" parent="EdYVw8JxPQ8l5NFYAC7c-14" vertex="1">
          <mxGeometry x="5" y="15" width="120" height="30" as="geometry" />
        </mxCell>
        <mxCell id="EdYVw8JxPQ8l5NFYAC7c-3" value="Slave Node" style="rounded=1;whiteSpace=wrap;html=1;fillColor=#CCFFFF;shadow=1;" vertex="1" parent="EdYVw8JxPQ8l5NFYAC7c-14">
          <mxGeometry y="120" width="130" height="60" as="geometry" />
        </mxCell>
      </root>
    </mxGraphModel>
  </diagram>
</mxfile>
